# xmcd CD database file
#
# Track frame offsets:
#	150
#	15790
#	28256
#	42617
#	57689
#	76171
#	92332
#	106929
#	120532
#	199977
#	213154
#	227657
#	239034
#	249985
#	263256
#	277854
#
# Disc length: 3861 seconds
#
# Revision: 1
# Processed by: cddbd v1.5.1PL0 Copyright (c) Steve Scherf et al.
# Submitted via: CDex 1.50beta9
#
DISCID=cb0f1310
DTITLE=Gerry Mulligan - My Funny Valentine - CD1
DYEAR=1900
DGENRE=Jazz
TTITLE0=It May Be Wrong
TTITLE1=So What
TTITLE2=Kaper
TTITLE3=Die's Side
TTITLE4=Mullenium
TTITLE5=Roundhouse
TTITLE6=Funhouse
TTITLE7=Bweebida Bobbida
TTITLE8=Mulligan's Too
TTITLE9=Bernies Tune
TTITLE10=Lullaby Of The Leaves
TTITLE11=Line For Lyons
TTITLE12=Carioca
TTITLE13=My Funny Valentine
TTITLE14=Bark For Barksdale
TTITLE15=Soft Shoe
EXTD=
EXTT0=
EXTT1=
EXTT2=
EXTT3=
EXTT4=
EXTT5=
EXTT6=
EXTT7=
EXTT8=
EXTT9=
EXTT10=
EXTT11=
EXTT12=
EXTT13=
EXTT14=
EXTT15=
PLAYORDER=
